<?xml version="1.0" encoding="utf-8"?>
<!-- Generator: Adobe Illustrator 25.4.0, SVG Export Plug-In . SVG Version: 6.00 Build 0)  -->
<svg version="1.2" baseProfile="tiny" id="Laag_1" xmlns="http://www.w3.org/2000/svg" xmlns:xlink="http://www.w3.org/1999/xlink"
	 x="0px" y="0px" viewBox="0 0 269 43" overflow="visible" xml:space="preserve">
<g>
	<path fill="#232323" d="M7,4.4l3.3,12.4l4.1-12.4h4l4.1,12.4l3.3-12.4h5.2l-5.7,19.2h-5.1l-3.8-11.1l-3.8,11.1H7.5L1.8,4.4H7z"/>
	<path fill="#232323" d="M32.6,5.5c0-0.4,0.1-0.7,0.2-1c0.1-0.3,0.3-0.6,0.6-0.8c0.2-0.2,0.5-0.4,0.8-0.6s0.6-0.2,1-0.2
		s0.7,0.1,1,0.2s0.6,0.3,0.8,0.6c0.2,0.2,0.4,0.5,0.6,0.8c0.1,0.3,0.2,0.6,0.2,1c0,0.4-0.1,0.7-0.2,1c-0.1,0.3-0.3,0.6-0.6,0.8
		c-0.2,0.2-0.5,0.4-0.8,0.6s-0.6,0.2-1,0.2s-0.7-0.1-1-0.2s-0.6-0.3-0.8-0.6c-0.2-0.2-0.4-0.5-0.6-0.8C32.7,6.2,32.6,5.8,32.6,5.5z
		 M37.5,10.5v13.1h-4.6V10.5H37.5z"/>
	<path fill="#232323" d="M45.3,2.4v21.1h-4.6V2.4H45.3z"/>
	<path fill="#232323" d="M53.1,2.4v12.8l4.8-4.7h6.3l-6.5,6l6.9,7h-6.5l-5.1-5.3v5.3h-4.6V2.4H53.1z"/>
	<path fill="#232323" d="M69.6,17.8c0,2,0.9,3,2.8,3c1,0,1.8-0.4,2.3-1.2h4.5c-0.9,3-3.1,4.5-6.7,4.5c-1.1,0-2.1-0.2-3-0.5
		c-0.9-0.3-1.7-0.8-2.4-1.4c-0.7-0.6-1.2-1.3-1.5-2.2c-0.4-0.8-0.5-1.8-0.5-2.9c0-1.1,0.2-2.1,0.5-2.9c0.3-0.9,0.8-1.6,1.5-2.2
		c0.6-0.6,1.4-1.1,2.3-1.4c0.9-0.3,1.9-0.5,3-0.5c1.1,0,2.1,0.2,3,0.5c0.9,0.3,1.6,0.8,2.2,1.4c0.6,0.6,1.1,1.4,1.4,2.3
		c0.3,0.9,0.5,1.9,0.5,3.1v0.5H69.6z M75,15.1c-0.2-0.6-0.5-1.2-0.9-1.6C73.6,13.2,73,13,72.3,13c-0.7,0-1.3,0.2-1.7,0.6
		c-0.4,0.4-0.7,0.9-0.9,1.6H75z"/>
	<path fill="#232323" d="M81.9,10.5h4.6v1.7c0.6-0.8,1.3-1.3,1.9-1.5c0.6-0.3,1.4-0.4,2.3-0.4c0.9,0,1.7,0.1,2.4,0.4
		c0.7,0.3,1.2,0.7,1.7,1.3c0.4,0.4,0.6,0.9,0.8,1.5c0.1,0.5,0.2,1.2,0.2,1.9v8.3h-4.6V17c0-0.6,0-1.2-0.1-1.6
		c-0.1-0.4-0.3-0.7-0.5-1c-0.2-0.2-0.4-0.3-0.7-0.4c-0.3-0.1-0.5-0.1-0.8-0.1c-0.8,0-1.4,0.2-1.8,0.7s-0.6,1.1-0.6,2v7h-4.6V10.5z"
		/>
	<path fill="#232323" d="M107.4,13.9c-0.8-0.4-1.7-0.7-2.5-0.7c-0.4,0-0.8,0.1-1,0.3c-0.3,0.2-0.4,0.4-0.4,0.7c0,0.2,0,0.3,0.1,0.4
		c0,0.1,0.1,0.2,0.3,0.3c0.1,0.1,0.4,0.2,0.6,0.2c0.3,0.1,0.6,0.2,1.1,0.3c1.3,0.3,2.2,0.7,2.9,1.4c0.6,0.7,0.9,1.5,0.9,2.5
		c0,0.8-0.2,1.5-0.5,2.1c-0.3,0.6-0.7,1.1-1.3,1.5c-0.5,0.4-1.2,0.7-2,1c-0.8,0.2-1.6,0.3-2.5,0.3c-1.8,0-3.5-0.5-5.2-1.5l1.7-3.3
		c1.3,0.9,2.5,1.3,3.7,1.3c0.4,0,0.8-0.1,1-0.3c0.3-0.2,0.4-0.4,0.4-0.7c0-0.2,0-0.3-0.1-0.4c0-0.1-0.1-0.2-0.3-0.3
		c-0.1-0.1-0.3-0.2-0.6-0.3c-0.3-0.1-0.6-0.2-1-0.2c-1.4-0.3-2.4-0.7-3-1.3c-0.6-0.6-0.9-1.4-0.9-2.4c0-0.7,0.1-1.4,0.4-2
		c0.3-0.6,0.7-1.1,1.2-1.5c0.5-0.4,1.1-0.7,1.8-0.9c0.7-0.2,1.5-0.3,2.4-0.3c1.4,0,2.8,0.3,4.2,0.8L107.4,13.9z"/>
	<path fill="#232323" d="M125.8,4.4v19.2h-5V4.4H125.8z"/>
	<path fill="#232323" d="M129.4,10.5h4.6v1.7c0.6-0.8,1.3-1.3,1.9-1.5c0.6-0.3,1.4-0.4,2.3-0.4c0.9,0,1.7,0.1,2.4,0.4
		c0.7,0.3,1.2,0.7,1.7,1.3c0.4,0.4,0.6,0.9,0.8,1.5c0.1,0.5,0.2,1.2,0.2,1.9v8.3h-4.6V17c0-0.6,0-1.2-0.1-1.6
		c-0.1-0.4-0.3-0.7-0.5-1c-0.2-0.2-0.4-0.3-0.7-0.4c-0.3-0.1-0.5-0.1-0.8-0.1c-0.8,0-1.4,0.2-1.8,0.7s-0.6,1.1-0.6,2v7h-4.6V10.5z"
		/>
	<path fill="#232323" d="M154.9,13.9c-0.8-0.4-1.7-0.7-2.5-0.7c-0.4,0-0.8,0.1-1,0.3c-0.3,0.2-0.4,0.4-0.4,0.7c0,0.2,0,0.3,0.1,0.4
		c0,0.1,0.1,0.2,0.3,0.3c0.1,0.1,0.4,0.2,0.6,0.2c0.3,0.1,0.6,0.2,1.1,0.3c1.3,0.3,2.2,0.7,2.9,1.4c0.6,0.7,0.9,1.5,0.9,2.5
		c0,0.8-0.2,1.5-0.5,2.1c-0.3,0.6-0.7,1.1-1.3,1.5c-0.5,0.4-1.2,0.7-2,1c-0.8,0.2-1.6,0.3-2.5,0.3c-1.8,0-3.5-0.5-5.2-1.5l1.7-3.3
		c1.3,0.9,2.5,1.3,3.7,1.3c0.4,0,0.8-0.1,1-0.3c0.3-0.2,0.4-0.4,0.4-0.7c0-0.2,0-0.3-0.1-0.4c0-0.1-0.1-0.2-0.3-0.3
		c-0.1-0.1-0.3-0.2-0.6-0.3c-0.3-0.1-0.6-0.2-1-0.2c-1.4-0.3-2.4-0.7-3-1.3c-0.6-0.6-0.9-1.4-0.9-2.4c0-0.7,0.1-1.4,0.4-2
		c0.3-0.6,0.7-1.1,1.2-1.5c0.5-0.4,1.1-0.7,1.8-0.9c0.7-0.2,1.5-0.3,2.4-0.3c1.4,0,2.8,0.3,4.2,0.8L154.9,13.9z"/>
	<path fill="#232323" d="M164.7,14.3v9.2h-4.6v-9.2h-1.5v-3.8h1.5V6.6h4.6v3.9h2.6v3.8H164.7z"/>
	<path fill="#232323" d="M179.4,10.5h4.6v13.1h-4.6v-1.5c-1,1.2-2.3,1.9-4,1.9c-1,0-1.8-0.2-2.6-0.5c-0.8-0.3-1.5-0.8-2.1-1.5
		c-0.6-0.6-1.1-1.4-1.4-2.2c-0.3-0.8-0.5-1.8-0.5-2.8c0-0.9,0.2-1.8,0.5-2.7c0.3-0.8,0.8-1.6,1.3-2.2c0.6-0.6,1.3-1.1,2.1-1.5
		c0.8-0.4,1.7-0.5,2.6-0.5c1.6,0,3,0.6,4,1.7V10.5z M173.6,17c0,0.4,0.1,0.8,0.2,1.2c0.2,0.4,0.4,0.7,0.6,1c0.3,0.3,0.6,0.5,0.9,0.6
		c0.4,0.2,0.8,0.2,1.2,0.2c0.4,0,0.8-0.1,1.2-0.2c0.4-0.2,0.7-0.4,0.9-0.6s0.5-0.6,0.6-0.9c0.2-0.4,0.2-0.7,0.2-1.1
		s-0.1-0.8-0.2-1.2s-0.4-0.7-0.6-1c-0.3-0.3-0.6-0.5-0.9-0.6c-0.4-0.2-0.8-0.2-1.2-0.2c-0.4,0-0.8,0.1-1.2,0.2
		c-0.4,0.2-0.7,0.4-0.9,0.6c-0.3,0.3-0.5,0.6-0.6,0.9C173.7,16.2,173.6,16.6,173.6,17z"/>
	<path fill="#232323" d="M191.8,2.4v21.1h-4.6V2.4H191.8z"/>
	<path fill="#232323" d="M199.6,2.4v21.1H195V2.4H199.6z"/>
	<path fill="#232323" d="M212.8,10.5h4.6v13.1h-4.6v-1.5c-1,1.2-2.3,1.9-4,1.9c-1,0-1.8-0.2-2.6-0.5c-0.8-0.3-1.5-0.8-2.1-1.5
		c-0.6-0.6-1.1-1.4-1.4-2.2c-0.3-0.8-0.5-1.8-0.5-2.8c0-0.9,0.2-1.8,0.5-2.7c0.3-0.8,0.8-1.6,1.3-2.2c0.6-0.6,1.3-1.1,2.1-1.5
		c0.8-0.4,1.7-0.5,2.6-0.5c1.6,0,3,0.6,4,1.7V10.5z M207,17c0,0.4,0.1,0.8,0.2,1.2c0.2,0.4,0.4,0.7,0.6,1c0.3,0.3,0.6,0.5,0.9,0.6
		c0.4,0.2,0.8,0.2,1.2,0.2c0.4,0,0.8-0.1,1.2-0.2c0.4-0.2,0.7-0.4,0.9-0.6s0.5-0.6,0.6-0.9c0.2-0.4,0.2-0.7,0.2-1.1
		s-0.1-0.8-0.2-1.2s-0.4-0.7-0.6-1c-0.3-0.3-0.6-0.5-0.9-0.6c-0.4-0.2-0.8-0.2-1.2-0.2c-0.4,0-0.8,0.1-1.2,0.2
		c-0.4,0.2-0.7,0.4-0.9,0.6c-0.3,0.3-0.5,0.6-0.6,0.9C207.1,16.2,207,16.6,207,17z"/>
	<path fill="#232323" d="M225.7,14.3v9.2h-4.6v-9.2h-1.5v-3.8h1.5V6.6h4.6v3.9h2.6v3.8H225.7z"/>
	<path fill="#232323" d="M230.1,5.5c0-0.4,0.1-0.7,0.2-1c0.1-0.3,0.3-0.6,0.6-0.8c0.2-0.2,0.5-0.4,0.8-0.6s0.6-0.2,1-0.2
		s0.7,0.1,1,0.2s0.6,0.3,0.8,0.6c0.2,0.2,0.4,0.5,0.6,0.8c0.1,0.3,0.2,0.6,0.2,1c0,0.4-0.1,0.7-0.2,1c-0.1,0.3-0.3,0.6-0.6,0.8
		c-0.2,0.2-0.5,0.4-0.8,0.6s-0.6,0.2-1,0.2s-0.7-0.1-1-0.2s-0.6-0.3-0.8-0.6c-0.2-0.2-0.4-0.5-0.6-0.8
		C230.2,6.2,230.1,5.8,230.1,5.5z M235,10.5v13.1h-4.6V10.5H235z"/>
	<path fill="#232323" d="M242.3,17.8c0,2,0.9,3,2.8,3c1,0,1.8-0.4,2.3-1.2h4.5c-0.9,3-3.1,4.5-6.7,4.5c-1.1,0-2.1-0.2-3-0.5
		c-0.9-0.3-1.7-0.8-2.4-1.4c-0.7-0.6-1.2-1.3-1.5-2.2c-0.4-0.8-0.5-1.8-0.5-2.9c0-1.1,0.2-2.1,0.5-2.9c0.3-0.9,0.8-1.6,1.5-2.2
		c0.6-0.6,1.4-1.1,2.3-1.4c0.9-0.3,1.9-0.5,3-0.5c1.1,0,2.1,0.2,3,0.5c0.9,0.3,1.6,0.8,2.2,1.4c0.6,0.6,1.1,1.4,1.4,2.3
		c0.3,0.9,0.5,1.9,0.5,3.1v0.5H242.3z M247.7,15.1c-0.2-0.6-0.5-1.2-0.9-1.6c-0.5-0.4-1.1-0.6-1.7-0.6c-0.7,0-1.3,0.2-1.7,0.6
		c-0.4,0.4-0.7,0.9-0.9,1.6H247.7z"/>
	<path fill="#232323" d="M263.3,13.9c-0.8-0.4-1.7-0.7-2.5-0.7c-0.4,0-0.8,0.1-1,0.3c-0.3,0.2-0.4,0.4-0.4,0.7c0,0.2,0,0.3,0.1,0.4
		c0,0.1,0.1,0.2,0.3,0.3c0.1,0.1,0.4,0.2,0.6,0.2c0.3,0.1,0.6,0.2,1.1,0.3c1.3,0.3,2.2,0.7,2.9,1.4c0.6,0.7,0.9,1.5,0.9,2.5
		c0,0.8-0.2,1.5-0.5,2.1c-0.3,0.6-0.7,1.1-1.3,1.5c-0.5,0.4-1.2,0.7-2,1c-0.8,0.2-1.6,0.3-2.5,0.3c-1.8,0-3.5-0.5-5.2-1.5l1.7-3.3
		c1.3,0.9,2.5,1.3,3.7,1.3c0.4,0,0.8-0.1,1-0.3c0.3-0.2,0.4-0.4,0.4-0.7c0-0.2,0-0.3-0.1-0.4c0-0.1-0.1-0.2-0.3-0.3
		c-0.1-0.1-0.3-0.2-0.6-0.3c-0.3-0.1-0.6-0.2-1-0.2c-1.4-0.3-2.4-0.7-3-1.3c-0.6-0.6-0.9-1.4-0.9-2.4c0-0.7,0.1-1.4,0.4-2
		c0.3-0.6,0.7-1.1,1.2-1.5c0.5-0.4,1.1-0.7,1.8-0.9c0.7-0.2,1.5-0.3,2.4-0.3c1.4,0,2.8,0.3,4.2,0.8L263.3,13.9z"/>
</g>
<circle fill="#F15A24" cx="9" cy="33" r="6"/>
<circle fill="#F15A24" cx="25" cy="33" r="6"/>
<circle fill="#F15A24" cx="41" cy="33" r="6"/>
<circle fill="#F15A24" cx="57" cy="33" r="6"/>
</svg>
